<svg xmlns="http://www.w3.org/2000/svg" viewBox="0 0 800 450" fill="none">
  <defs>
    <linearGradient id="ps-bg" x1="0" y1="0" x2="800" y2="450">
      <stop offset="0%" stop-color="#0f0f23"/>
      <stop offset="100%" stop-color="#1a1033"/>
    </linearGradient>
    <linearGradient id="ps-accent" x1="0" y1="0" x2="1" y2="0">
      <stop offset="0%" stop-color="#6366F1"/>
      <stop offset="100%" stop-color="#8B5CF6"/>
    </linearGradient>
  </defs>
  <!-- Background -->
  <rect width="800" height="450" rx="12" fill="url(#ps-bg)"/>
  <!-- Browser chrome -->
  <rect width="800" height="36" rx="12" fill="#0d1117"/>
  <rect y="12" width="800" height="24" fill="#0d1117"/>
  <circle cx="20" cy="18" r="6" fill="#ff5f57"/>
  <circle cx="40" cy="18" r="6" fill="#febc2e"/>
  <circle cx="60" cy="18" r="6" fill="#28c840"/>
  <rect x="200" y="10" width="400" height="16" rx="8" fill="#161b22"/>
  <text x="400" y="22" text-anchor="middle" font-family="system-ui" font-size="9" fill="#8b949e">localhost:3003</text>
  <!-- Nav bar -->
  <rect y="36" width="800" height="44" fill="rgba(13,17,23,0.8)"/>
  <text x="24" y="64" font-family="system-ui" font-weight="700" font-size="16" fill="#6366F1">ParliScope</text>
  <text x="140" y="64" font-family="system-ui" font-size="12" fill="#8b949e">ダッシュボード</text>
  <text x="240" y="64" font-family="system-ui" font-size="12" fill="#8b949e">法案</text>
  <text x="290" y="64" font-family="system-ui" font-size="12" fill="#8b949e">議員</text>
  <text x="340" y="64" font-family="system-ui" font-size="12" fill="#8b949e">会期</text>
  <!-- Hero -->
  <text x="40" y="118" font-family="system-ui" font-weight="800" font-size="22" fill="white">議会を、すべての人に開く</text>
  <text x="40" y="140" font-family="system-ui" font-size="11" fill="#8b949e">全法案・全議員・全投票データをリアルタイムに可視化</text>
  <!-- Stats -->
  <rect x="40" y="155" width="120" height="56" rx="8" fill="rgba(99,102,241,0.1)" stroke="rgba(99,102,241,0.3)" stroke-width="1"/>
  <text x="56" y="174" font-family="system-ui" font-size="9" fill="#8b949e">法案数</text>
  <text x="56" y="198" font-family="system-ui" font-weight="700" font-size="20" fill="#818CF8">90</text>
  <rect x="172" y="155" width="120" height="56" rx="8" fill="rgba(99,102,241,0.1)" stroke="rgba(99,102,241,0.3)" stroke-width="1"/>
  <text x="188" y="174" font-family="system-ui" font-size="9" fill="#8b949e">議員数</text>
  <text x="188" y="198" font-family="system-ui" font-weight="700" font-size="20" fill="#818CF8">713</text>
  <rect x="304" y="155" width="120" height="56" rx="8" fill="rgba(99,102,241,0.1)" stroke="rgba(99,102,241,0.3)" stroke-width="1"/>
  <text x="320" y="174" font-family="system-ui" font-size="9" fill="#8b949e">会期数</text>
  <text x="320" y="198" font-family="system-ui" font-weight="700" font-size="20" fill="#818CF8">21</text>
  <!-- Bill cards -->
  <rect x="40" y="224" width="355" height="200" rx="10" fill="rgba(255,255,255,0.03)" stroke="rgba(255,255,255,0.06)" stroke-width="1"/>
  <text x="56" y="250" font-family="system-ui" font-weight="600" font-size="13" fill="white">最新法案</text>
  <!-- Bill item 1 -->
  <rect x="56" y="264" width="4" height="36" rx="2" fill="#22c55e"/>
  <text x="72" y="280" font-family="system-ui" font-weight="500" font-size="11" fill="white">改正子ども・子育て支援法</text>
  <text x="72" y="294" font-family="system-ui" font-size="9" fill="#8b949e">第214回通常国会 — 成立</text>
  <rect x="320" y="270" width="50" height="18" rx="9" fill="rgba(34,197,94,0.2)"/>
  <text x="345" y="283" text-anchor="middle" font-family="system-ui" font-size="8" fill="#4ade80">成立</text>
  <!-- Bill item 2 -->
  <rect x="56" y="308" width="4" height="36" rx="2" fill="#22c55e"/>
  <text x="72" y="324" font-family="system-ui" font-weight="500" font-size="11" fill="white">改正地方自治法</text>
  <text x="72" y="338" font-family="system-ui" font-size="9" fill="#8b949e">第214回通常国会 — 成立</text>
  <rect x="320" y="314" width="50" height="18" rx="9" fill="rgba(34,197,94,0.2)"/>
  <text x="345" y="327" text-anchor="middle" font-family="system-ui" font-size="8" fill="#4ade80">成立</text>
  <!-- Bill item 3 -->
  <rect x="56" y="352" width="4" height="36" rx="2" fill="#eab308"/>
  <text x="72" y="368" font-family="system-ui" font-weight="500" font-size="11" fill="white">政治資金規正法改正案</text>
  <text x="72" y="382" font-family="system-ui" font-size="9" fill="#8b949e">第214回通常国会 — 審議中</text>
  <rect x="320" y="358" width="50" height="18" rx="9" fill="rgba(234,179,8,0.2)"/>
  <text x="345" y="371" text-anchor="middle" font-family="system-ui" font-size="8" fill="#fbbf24">審議中</text>
  <!-- Vote visualization -->
  <rect x="410" y="224" width="350" height="200" rx="10" fill="rgba(255,255,255,0.03)" stroke="rgba(255,255,255,0.06)" stroke-width="1"/>
  <text x="426" y="250" font-family="system-ui" font-weight="600" font-size="13" fill="white">投票結果</text>
  <text x="426" y="268" font-family="system-ui" font-size="9" fill="#8b949e">改正子ども・子育て支援法</text>
  <!-- Vote bars -->
  <text x="426" y="296" font-family="system-ui" font-size="10" fill="#4ade80">賛成</text>
  <rect x="470" y="285" width="260" height="16" rx="4" fill="rgba(255,255,255,0.06)"/>
  <rect x="470" y="285" width="220" height="16" rx="4" fill="url(#ps-accent)" opacity="0.8"/>
  <text x="696" y="297" font-family="system-ui" font-size="10" fill="#818CF8">389</text>
  <text x="426" y="324" font-family="system-ui" font-size="10" fill="#f87171">反対</text>
  <rect x="470" y="313" width="260" height="16" rx="4" fill="rgba(255,255,255,0.06)"/>
  <rect x="470" y="313" width="80" height="16" rx="4" fill="#ef4444" opacity="0.6"/>
  <text x="556" y="325" font-family="system-ui" font-size="10" fill="#fca5a5">142</text>
  <text x="426" y="352" font-family="system-ui" font-size="10" fill="#fbbf24">棄権</text>
  <rect x="470" y="341" width="260" height="16" rx="4" fill="rgba(255,255,255,0.06)"/>
  <rect x="470" y="341" width="20" height="16" rx="4" fill="#eab308" opacity="0.5"/>
  <text x="496" y="353" font-family="system-ui" font-size="10" fill="#fde68a">12</text>
  <!-- Party breakdown -->
  <text x="426" y="384" font-family="system-ui" font-size="9" fill="#8b949e">政党別:</text>
  <rect x="478" y="374" width="12" height="12" rx="2" fill="#E8312B"/>
  <text x="496" y="384" font-family="system-ui" font-size="8" fill="#ccc">自民 ✓</text>
  <rect x="536" y="374" width="12" height="12" rx="2" fill="#1E88E5"/>
  <text x="554" y="384" font-family="system-ui" font-size="8" fill="#ccc">立憲 ✓</text>
  <rect x="594" y="374" width="12" height="12" rx="2" fill="#F5DEB3"/>
  <text x="612" y="384" font-family="system-ui" font-size="8" fill="#ccc">公明 ✓</text>
  <rect x="652" y="374" width="12" height="12" rx="2" fill="#E65100"/>
  <text x="670" y="384" font-family="system-ui" font-size="8" fill="#ccc">維新 ✗</text>
</svg>
