<svg xmlns="http://www.w3.org/2000/svg" viewBox="0 0 800 450" fill="none">
  <defs>
    <linearGradient id="sm-bg" x1="0" y1="0" x2="800" y2="450">
      <stop offset="0%" stop-color="#1a0a0a"/>
      <stop offset="100%" stop-color="#1c1017"/>
    </linearGradient>
  </defs>
  <!-- Background -->
  <rect width="800" height="450" rx="12" fill="url(#sm-bg)"/>
  <!-- Browser chrome -->
  <rect width="800" height="36" rx="12" fill="#0d1117"/>
  <rect y="12" width="800" height="24" fill="#0d1117"/>
  <circle cx="20" cy="18" r="6" fill="#ff5f57"/>
  <circle cx="40" cy="18" r="6" fill="#febc2e"/>
  <circle cx="60" cy="18" r="6" fill="#28c840"/>
  <rect x="200" y="10" width="400" height="16" rx="8" fill="#161b22"/>
  <text x="400" y="22" text-anchor="middle" font-family="system-ui" font-size="9" fill="#8b949e">localhost:3005</text>
  <!-- Nav bar -->
  <rect y="36" width="800" height="44" fill="rgba(13,17,23,0.8)"/>
  <text x="24" y="64" font-family="system-ui" font-weight="700" font-size="16" fill="#DC2626">SeatMap</text>
  <text x="120" y="64" font-family="system-ui" font-size="12" fill="#8b949e">議席構成</text>
  <text x="200" y="64" font-family="system-ui" font-size="12" fill="#8b949e">選挙別推移</text>
  <text x="300" y="64" font-family="system-ui" font-size="12" fill="#8b949e">概要</text>
  <!-- Title -->
  <text x="400" y="112" text-anchor="middle" font-family="system-ui" font-weight="800" font-size="22" fill="white">衆議院 議席構成</text>
  <text x="400" y="134" text-anchor="middle" font-family="system-ui" font-size="11" fill="#8b949e">第50回衆議院議員総選挙（2024年）｜定数 465</text>
  <!-- Seat bars - animated spring physics style -->
  <!-- LDP -->
  <rect x="60" y="158" width="260" height="28" rx="6" fill="#E8312B" opacity="0.85"/>
  <text x="68" y="176" font-family="system-ui" font-weight="600" font-size="11" fill="white">自由民主党</text>
  <text x="308" y="176" text-anchor="end" font-family="system-ui" font-weight="700" font-size="12" fill="white">191</text>
  <!-- CDP -->
  <rect x="60" y="192" width="190" height="28" rx="6" fill="#1E88E5" opacity="0.8"/>
  <text x="68" y="210" font-family="system-ui" font-weight="600" font-size="11" fill="white">立憲民主党</text>
  <text x="238" y="210" text-anchor="end" font-family="system-ui" font-weight="700" font-size="12" fill="white">148</text>
  <!-- Ishin -->
  <rect x="60" y="226" width="68" height="28" rx="6" fill="#E65100" opacity="0.75"/>
  <text x="68" y="244" font-family="system-ui" font-weight="600" font-size="11" fill="white">維新</text>
  <text x="120" y="244" text-anchor="end" font-family="system-ui" font-weight="700" font-size="12" fill="white">38</text>
  <!-- Komeito -->
  <rect x="60" y="260" width="54" height="28" rx="6" fill="#F5DEB3" opacity="0.7"/>
  <text x="68" y="278" font-family="system-ui" font-weight="600" font-size="10" fill="#333">公明</text>
  <text x="106" y="278" text-anchor="end" font-family="system-ui" font-weight="700" font-size="12" fill="#333">24</text>
  <!-- DPP -->
  <rect x="60" y="294" width="48" height="28" rx="6" fill="#F4B400" opacity="0.7"/>
  <text x="68" y="312" font-family="system-ui" font-weight="600" font-size="10" fill="#333">国民</text>
  <text x="100" y="312" text-anchor="end" font-family="system-ui" font-weight="700" font-size="12" fill="#333">28</text>
  <!-- Reiwa -->
  <rect x="60" y="328" width="36" height="28" rx="6" fill="#E91E63" opacity="0.65"/>
  <text x="68" y="346" font-family="system-ui" font-weight="600" font-size="9" fill="white">れいわ</text>
  <!-- JCP -->
  <rect x="60" y="362" width="28" height="28" rx="6" fill="#D32F2F" opacity="0.6"/>
  <text x="68" y="380" font-family="system-ui" font-weight="600" font-size="9" fill="white">共産</text>
  <!-- Majority line -->
  <line x1="393" y1="148" x2="393" y2="410" stroke="#fbbf24" stroke-width="2" stroke-dasharray="6,4" opacity="0.6"/>
  <text x="397" y="160" font-family="system-ui" font-size="9" fill="#fbbf24">過半数 233</text>
  <!-- Coalition bracket -->
  <rect x="440" y="158" width="320" height="140" rx="10" fill="rgba(255,255,255,0.03)" stroke="rgba(255,255,255,0.06)" stroke-width="1"/>
  <text x="456" y="182" font-family="system-ui" font-weight="600" font-size="13" fill="white">与野党勢力</text>
  <!-- Stacked bar -->
  <rect x="456" y="200" width="288" height="30" rx="6" fill="rgba(255,255,255,0.06)"/>
  <rect x="456" y="200" width="118" height="30" rx="6" fill="#E8312B" opacity="0.8"/>
  <rect x="574" y="200" width="30" height="30" fill="#F5DEB3" opacity="0.7"/>
  <text x="530" y="220" text-anchor="middle" font-family="system-ui" font-weight="600" font-size="10" fill="white">与党 215</text>
  <text x="668" y="220" text-anchor="middle" font-family="system-ui" font-weight="600" font-size="10" fill="white">野党 250</text>
  <!-- Summary -->
  <text x="456" y="258" font-family="system-ui" font-size="10" fill="#fbbf24">少数与党（過半数割れ）</text>
  <text x="456" y="278" font-family="system-ui" font-size="9" fill="#8b949e">自民191 + 公明24 = 215 / 465</text>
</svg>
